<svg width="477.534" height="477.534" xmlns="http://www.w3.org/2000/svg">
 <g>
  <title>background</title>
  <rect x="-1" y="-1" width="479.534" height="479.534" id="canvas_background" fill="none"/>
 </g>

 <g>
  <title>Layer 1</title>
  <g id="svg_1">
   <g id="svg_2">
    <path stroke="#db7676" fill="#ed4956" d="m438.482,58.61c-24.7,-26.549 -59.311,-41.655 -95.573,-41.711c-36.291,0.042 -70.938,15.14 -95.676,41.694l-8.431,8.909l-8.431,-8.909c-49.087,-52.831 -131.709,-55.865 -184.539,-6.778c-2.341,2.176 -4.602,4.436 -6.778,6.778c-52.072,56.166 -52.072,142.968 0,199.134l187.358,197.581c6.482,6.843 17.284,7.136 24.127,0.654c0.224,-0.212 0.442,-0.43 0.654,-0.654l187.29,-197.581c52.068,-56.16 52.068,-142.957 -0.001,-199.117zm-24.695,175.616l-0.017,0l-174.968,184.542l-174.984,-184.542c-39.78,-42.916 -39.78,-109.233 0,-152.149c36.125,-39.154 97.152,-41.609 136.306,-5.484c1.901,1.754 3.73,3.583 5.484,5.484l20.804,21.948c6.856,6.812 17.925,6.812 24.781,0l20.804,-21.931c36.125,-39.154 97.152,-41.609 136.306,-5.484c1.901,1.754 3.73,3.583 5.484,5.484c40.126,42.984 40.42,109.422 0,152.132z" id="svg_3"/>
   </g>
  </g>
  <g id="svg_4"/>
  <g id="svg_5"/>
  <g id="svg_6"/>
  <g id="svg_7"/>
  <g id="svg_8"/>
  <g id="svg_9"/>
  <g id="svg_10"/>
  <g id="svg_11"/>
  <g id="svg_12"/>
  <g id="svg_13"/>
  <g id="svg_14"/>
  <g id="svg_15"/>
  <g id="svg_16"/>
  <g id="svg_17"/>
  <g id="svg_18"/>
  <rect fill="#ed4956" stroke-width="1.5" x="123.068495" y="143.983603" width="233.396988" height="230.473067" id="svg_23" transform="rotate(-45 239.76699829101562,259.22012329101557) " stroke="#ed4956"/>
  <ellipse fill="#ed4956" stroke-width="1.5" cx="333.266994" cy="160.220134" id="svg_22" rx="117.999996" ry="122.999994" stroke="#ed4956"/>
  <ellipse stroke="#ed4956" fill="#ed4956" stroke-width="1.5" cx="131.766995" cy="159.220134" id="svg_20" rx="111.499996" ry="117.999994"/>
 </g>
</svg>